<?xml version="1.0" standalone="no"?><!DOCTYPE svg PUBLIC "-//W3C//DTD SVG 1.1//EN" "http://www.w3.org/Graphics/SVG/1.1/DTD/svg11.dtd"><svg t="1639994142661" class="icon" viewBox="0 0 1354 1024" version="1.1" xmlns="http://www.w3.org/2000/svg" p-id="994" xmlns:xlink="http://www.w3.org/1999/xlink" width="264.453125" height="200"><defs><style type="text/css"></style></defs><path d="M850.89890441-120.79588548c-18.63684278 16.7758969-35.79786343 32.80776505-52.52248819 49.22475694a13.60876465 13.60876465 0 0 1-19.05925538-19.4321437 1678.98010254 1678.98010254 0 0 1 53.37430502-50.02646686 13.60876465 13.60876465 0 0 1 18.20685591 20.23443627z m-102.32405677 100.91174221c-16.40417383 18.0856672-31.80737554 36.29834951-46.1973697 54.70388499a13.60876465 13.60876465 0 0 1-21.44574075-16.76366151c14.813572-18.94447567 30.64617794-37.65065239 47.46693797-56.21699598a13.60876465 13.60876465 0 1 1 20.16976346 18.28434678z m-87.72897403 112.90359816a637.39379883 637.39379883 0 0 0-35.27174129 61.70253308 13.60876465 13.60876465 0 1 1-24.36475729-12.11304471 664.53057862 664.53057862 0 0 1 36.75921618-64.34479658 13.60876465 13.60876465 0 1 1 22.8772824 14.75530821zM598.32240356 220.05493862a434.34997559 434.34997559 0 0 0-17.12256653 68.2642026 13.60876465 13.60876465 0 0 1-26.86136129-4.40649147 461.52218628 461.52218628 0 0 1 18.1882115-72.53785256 13.60876465 13.60876465 0 0 1 25.79571632 8.68014143z m-22.26726038 138.13998199a378.56277466 378.56277466 0 0 0 7.76248653 69.63165406 13.60876465 13.60876465 0 1 1-26.66209906 5.49136348 405.78030395 405.78030395 0 0 1-8.31424474-74.63593215 13.60876465 13.60876465 0 1 1 27.22026629-0.49349441z m28.43273605 136.08093918c10.71296554 23.67200067 23.74949153 41.36613513 38.55548923 53.31138008a13.60876465 13.60876465 0 1 1-17.07770338 21.18297099c-18.31580923-14.76171723-33.87865375-35.89341607-46.28010429-63.26749881a13.60876465 13.60876465 0 1 1 24.80231844-11.22685226zM701.65325886 565.97296567c19.9774929-1.57778379 40.77592279-9.95670135 59.8864503-23.92253503a13.60876465 13.60876465 0 1 1 16.06391323 21.96603653c-22.99206209 16.80794199-48.51219061 27.08509428-73.80742084 29.09344756A13.60876465 13.60876465 0 1 1 701.65325886 565.97296567z m104.60799785-73.81441253c11.72034668-20.30377019 18.15500113-41.89167463 18.33445366-62.43316114a13.60876465 13.60876465 0 1 1 27.20744829 0.24995171c-0.22489828 25.46244735-8.00020283 51.59784164-21.97885456 75.7901381a13.60876465 13.60876465 0 1 1-23.57003903-13.6139203zM803.84913525 370.07607538c-15.05711472-19.29056266-32.53858628-30.93400113-51.4061537-35.05966102a13.60876465 13.60876465 0 1 1 5.81239702-26.58460822c25.32785797 5.54263562 48.21737577 20.78561187 67.05289812 44.8940084a13.60876465 13.60876465 0 0 1-21.45914144 16.75026084z m-112.40252946-24.21793251c-17.69996083 9.68053093-34.89244391 24.71841859-50.4436357 44.34924186a13.60876465 13.60876465 0 1 1-21.33737008-16.89766824c17.71977053-22.37737897 37.67104471-39.8139874 58.71301731-51.33565454a13.60876465 13.60876465 0 0 1 13.06798847 23.88408092z m-85.57321333 103.24112905c-9.10371927 20.32998892-16.58362635 42.59142291-22.24220691 66.40500462a13.60876465 13.60876465 0 0 1-26.47507227-6.280838c6.03613003-25.46128207 14.06837797-49.32730122 23.87068025-71.24148295a13.60876465 13.60876465 0 1 1 24.84659894 11.11731633z m-33.07053479 136.65192444a537.18777466 537.18777466 0 0 0-0.72538434 70.77945099 13.60876465 13.60876465 0 1 1-27.17482054 1.47582214 564.39624023 564.39624023 0 0 1 0.76267318-74.3719971 13.60876465 13.60876465 0 0 1 27.13694908 2.11730662z m5.40105458 142.81740013a1304.98214722 1304.98214722 0 0 0 9.80288492 71.15816572 13.60876465 13.60876465 0 1 1-26.85436962 4.46475522 1332.18154907 1332.18154907 0 0 1-10.00214712-72.6275788 13.60876465 13.60876465 0 1 1 27.05363182-2.99534214z m23.74308251 141.55249294c5.49777249 23.75648319 11.68888423 46.81962713 18.55935194 69.17661375a13.60876465 13.60876465 0 1 1-26.02061458 7.99379383 1040.99716187 1040.99716187 0 0 1-19.05342899-71.03056795 13.60876465 13.60876465 0 1 1 26.51469163-6.13983963zM592.35619009 1126.16195604a13.60876465 13.60876465 0 0 0 8.77569408-25.76308859l-51.36012531-16.87261483a13.60876465 13.60876465 0 0 0-8.76928507 25.7694976z m75.07815441-35.73959963a13.60876465 13.60876465 0 0 0 6.02389464-18.27677247 804.49255372 804.49255372 0 0 1-29.2024009-65.12786207 13.60876465 13.60876465 0 1 0-25.30163924 10.04584497 831.70184326 831.70184326 0 0 0 30.19696401 67.32848592 13.60876465 13.60876465 0 0 0 18.28318148 6.03030365z m73.41647071-44.09812487a13.60876465 13.60876465 0 0 0 17.46224452-8.09692074l24.98759738-68.13660488a13.60876465 13.60876465 0 0 0-25.54576462-9.37872443l-24.99983275 68.15000554a13.60876465 13.60876465 0 0 0 8.09517287 17.46166188zM711.01974789 1167.14821117l22.29289645-60.7854608a13.60876465 13.60876465 0 0 0-25.5457646-9.3659064l-13.22180489 35.7908718-27.73939679-8.26297259a13.60876465 13.60876465 0 0 0-8.76287602 25.76425385L711.01858262 1167.14821117z" p-id="995"></path></svg>