<?xml version="1.0" standalone="no"?><!DOCTYPE svg PUBLIC "-//W3C//DTD SVG 1.1//EN" "http://www.w3.org/Graphics/SVG/1.1/DTD/svg11.dtd"><svg t="1638951159398" class="icon" viewBox="0 0 1024 1024" version="1.1" xmlns="http://www.w3.org/2000/svg" p-id="5986" xmlns:xlink="http://www.w3.org/1999/xlink" width="200" height="200"><defs><style type="text/css"></style></defs><path d="M637.994667 523.264l-9.386667-1.365333-85.034667-12.245334-8.618666 29.994667a188.586667 188.586667 0 0 1 128.384 193.578667l-0.981334 9.258666-14.506666 117.589334a84.48 84.48 0 0 1-138.069334 62.08 84.053333 84.053333 0 0 1-30.592-73.088l1.066667-6.570667 15.36-120.96a20.266667 20.266667 0 0 0-14.421333-21.632 188.117333 188.117333 0 0 1-125.44 87.466667l-9.898667 1.664-107.946667 15.36a84.565333 84.565333 0 0 1-30.208-166.357334l6.186667-1.109333 112.042667-16.128a20.48 20.48 0 0 0 15.786666-13.184l1.194667-3.84 33.024-119.466667-32.853333-4.778666a33.365333 33.365333 0 0 0-38.144 25.344 84.48 84.48 0 0 1-79.402667 63.829333c-6.698667 0.768-13.653333 0.64-22.826667-0.853333a84.053333 84.053333 0 0 1-61.44-102.314667 202.581333 202.581333 0 0 1 218.026667-153.301333l9.386667 1.237333 287.146666 39.082667c28.373333 5.461333 55.893333-12.629333 61.781334-38.741334a83.626667 83.626667 0 0 1 10.154666-28.928l-34.517333-75.264a32 32 0 0 1 56.106667-30.506666l2.090666 3.84 28.672 62.506666a83.626667 83.626667 0 0 1 36.48-0.853333 84.48 84.48 0 0 1 68.138667 99.498667 223.786667 223.786667 0 0 1-27.477333 71.765333l25.258666 56.106667a32 32 0 0 1-58.368 26.282666l-12.544-27.989333a222.805333 222.805333 0 0 1-173.653333 52.992z m151.04-212.778667a40.746667 40.746667 0 0 1-3.669334 3.498667 23.296 23.296 0 0 0-4.906666 11.690667c-13.226667 59.562667-69.76 98.645333-128 91.136l-6.954667-1.109334-286.037333-38.912a138.752 138.752 0 0 0-156.117334 104.405334 20.992 20.992 0 0 0 11.776 23.893333l1.621334 0.128 1.578666-0.128 4.736-0.341333c9.386667 0 17.536-6.4 19.754667-15.146667a97.152 97.152 0 0 1 103.594667-74.24l6.741333 0.981333 67.84 9.813334c17.621333 2.56 29.44 18.773333 27.178667 35.882666l-0.896 4.266667-42.325334 153.088A84.565333 84.565333 0 0 1 342.442667 682.666667l-6.826667 1.365333-112.64 16.213333a20.565333 20.565333 0 0 0 2.176 40.96l3.712-0.213333 108.117333-15.36a124.16 124.16 0 0 0 98.048-75.989333 32 32 0 0 1 34.261334-19.541334l4.266666 0.938667 22.186667 6.485333a84.053333 84.053333 0 0 1 63.914667 85.162667l-0.554667 6.656-15.744 123.52a20.48 20.48 0 0 0 39.765333 9.685333l0.554667-3.157333v-0.426667l0.256-3.584 14.933333-120.917333a124.586667 124.586667 0 0 0-82.304-133.461333l-7.296-2.304-22.613333-6.4a32 32 0 0 1-22.954667-35.413334l0.896-4.266666 25.173334-87.466667a32 32 0 0 1 30.592-23.125333l4.693333 0.341333 113.408 16.298667a160 160 0 0 0 153.002667-59.733334 30.293333 30.293333 0 0 1 7.04-9.984c11.178667-16.853333 19.285333-36.138667 23.466666-57.173333a20.48 20.48 0 0 0-13.482666-23.338667l-3.2-0.810666-1.066667-0.170667a19.626667 19.626667 0 0 0-15.189333 3.072z m-205.098667 547.626667l-0.128 0.768v0.042667l-0.085333 0.256v0.213333l0.085333 2.986667v-2.090667l0.128-2.176zM538.453333 85.333333a123.733333 123.733333 0 1 1 0 247.466667 123.733333 123.733333 0 0 1 0-247.466667z m0 64a59.733333 59.733333 0 1 0 0 119.466667 59.733333 59.733333 0 0 0 0-119.466667z" p-id="5987"></path></svg>