<?xml version="1.0" standalone="no"?><!DOCTYPE svg PUBLIC "-//W3C//DTD SVG 1.1//EN" "http://www.w3.org/Graphics/SVG/1.1/DTD/svg11.dtd"><svg t="1640009017125" class="icon" viewBox="0 0 1024 1024" version="1.1" xmlns="http://www.w3.org/2000/svg" p-id="3077" xmlns:xlink="http://www.w3.org/1999/xlink" width="200" height="200"><defs><style type="text/css"></style></defs><path d="M706.88 960H317.12a96 96 0 0 1-96-91.52L192 268.16a32 32 0 1 1 64-2.88L285.12 864a32 32 0 0 0 32 30.4h389.76a32 32 0 0 0 32-30.4L768 262.72a32 32 0 0 1 32-32 32 32 0 0 1 30.4 32l-27.84 601.6A96 96 0 0 1 706.88 960z" fill="#444444" p-id="3078"></path><path d="M896 289.6H128a32 32 0 0 1 0-64h768a32 32 0 0 1 0 64z" fill="#444444" p-id="3079"></path><path d="M704 279.68a32 32 0 0 1-32-32V192a64 64 0 0 0-64-64h-192a64 64 0 0 0-64 64v55.68a32 32 0 0 1-64 0V192a128 128 0 0 1 128-128h192a128 128 0 0 1 128 128v55.68a32 32 0 0 1-32 32z" fill="#444444" p-id="3080"></path><path d="M350.72 737.92m32 0l258.56 0q32 0 32 32l0 0q0 32-32 32l-258.56 0q-32 0-32-32l0 0q0-32 32-32Z" fill="#F4CA1C" p-id="3081"></path></svg>