<?xml version="1.0" standalone="no"?><!DOCTYPE svg PUBLIC "-//W3C//DTD SVG 1.1//EN" "http://www.w3.org/Graphics/SVG/1.1/DTD/svg11.dtd"><svg t="1638951592018" class="icon" viewBox="0 0 1024 1024" version="1.1" xmlns="http://www.w3.org/2000/svg" p-id="16470" xmlns:xlink="http://www.w3.org/1999/xlink" width="200" height="200"><defs><style type="text/css"></style></defs><path d="M752 163c5.523 0 10 4.477 10 10v685c0 5.523-4.477 10-10 10H273c-5.523 0-10-4.477-10-10V173c0-5.523 4.477-10 10-10h479zM197.077 310.923v545c0 5.522-4.477 10-10 10h-115c-5.522 0-10-4.478-10-10v-446.8a10 10 0 0 1 4.33-8.236l130.67-89.964z m627 0l130.671 89.964a10 10 0 0 1 4.33 8.236v446.8c0 5.522-4.478 10-10 10h-115c-5.523 0-10-4.478-10-10v-545zM539 254h-52a6 6 0 0 0-5.996 5.775L481 260v87h-87a6 6 0 0 0-5.996 5.775L388 353v52a6 6 0 0 0 5.775 5.996L394 411h87v87a6 6 0 0 0 5.775 5.996L487 504h52a6 6 0 0 0 5.996-5.775L545 498v-87h87a6 6 0 0 0 5.996-5.775L638 405v-52a6 6 0 0 0-5.775-5.996L632 347h-87v-87a6 6 0 0 0-6-6z" p-id="16471"></path></svg>