<?xml version="1.0" standalone="no"?><!DOCTYPE svg PUBLIC "-//W3C//DTD SVG 1.1//EN" "http://www.w3.org/Graphics/SVG/1.1/DTD/svg11.dtd"><svg t="1639995044511" class="icon" viewBox="0 0 1024 1024" version="1.1" xmlns="http://www.w3.org/2000/svg" p-id="1025" xmlns:xlink="http://www.w3.org/1999/xlink" width="200" height="200"><defs><style type="text/css"></style></defs><path d="M0.15995 384.199938c0 211.997751 171.882287 383.880037 383.880038 383.88003699 64.811746 0 125.816682-16.218932 179.399937-44.62605399l266.860606 266.924586 0.19194-0.22393A112.444861 112.444861 0 0 0 910.979319 1024a112.892721 112.892721 0 0 0 112.892721-112.892721c0-31.510153-12.987941-59.949266-33.877413-80.454858l-0.06398 0.06398-266.796626-266.828616c28.503093-53.615245 44.786004-114.71615099 44.786004-179.68784701 0-211.997751-171.882287-383.880037-383.880037-383.88003799s-383.880037 171.882287-383.880038 383.880038zM950.00712301 870.607935a55.982505 55.982505 0 0 1 17.37057099 40.499344 56.430366 56.430366 0 0 1-56.430365 56.462355c-15.931022 0-30.166573-6.717901-40.499344-17.370571l-0.25592 0.28791-258.031365-258.031365a387.111028 387.111028 0 0 0 79.911028-79.783068l257.93539501 257.935395zM703.972009 384.199938c0 176.648797-143.283224 319.900031-319.900031 319.90003101-176.648797 0-319.900031-143.251234-319.900032-319.90003102 0-176.616807 143.251234-319.900031 319.900032-319.900032 176.616807 0 319.900031 143.283224 319.900031 319.90003201z" fill="#333333" p-id="1026"></path><path d="M160.109966 384.199938a223.930022 223.930022 0 0 0 223.930022 223.930021 15.995002 15.995002 0 0 0 0-31.990003 191.940019 191.940019 0 0 1-191.940019-191.940018 15.995002 15.995002 0 0 0-31.990003 0z" fill="#333333" p-id="1027"></path></svg>