<?xml version="1.0" standalone="no"?><!DOCTYPE svg PUBLIC "-//W3C//DTD SVG 1.1//EN" "http://www.w3.org/Graphics/SVG/1.1/DTD/svg11.dtd"><svg t="1638951545054" class="icon" viewBox="0 0 1024 1024" version="1.1" xmlns="http://www.w3.org/2000/svg" p-id="15657" xmlns:xlink="http://www.w3.org/1999/xlink" width="200" height="200"><defs><style type="text/css"></style></defs><path d="M958.854095 310.922159C909.458286 160.394159 794.217651 146.285714 794.217651 146.285714H772.87619c-20.886349 0-50.224762 8.679619-64.463238 23.958349l-45.901206 55.084699a94.077968 94.077968 0 0 1-72.265143 33.857016H433.769651a94.029206 94.029206 0 0 1-72.265143-33.857016l-45.901206-55.084699C301.364825 154.965333 272.010159 146.285714 251.12381 146.285714h-21.357715s-115.240635 14.108444-164.636444 164.636445C18.757079 452.250413 8.679619 581.38819 8.679619 682.520381 8.695873 861.249016 114.541714 877.714286 114.541714 877.714286h51.736381c35.271111 0 70.558476-49.39581 108.186413-129.34908 37.627937-79.969524 58.790603-91.721143 105.829587-91.721143h263.41181c47.038984 0 68.201651 11.751619 105.829587 91.721143C787.163429 828.318476 822.450794 877.714286 857.721905 877.714286h51.736381s105.829587-16.46527 105.829587-195.210159c0.016254-101.13219-10.061206-230.253714-56.433778-371.581968zM257.999238 522.581333a112.88381 112.88381 0 1 1 0-225.767619 112.88381 112.88381 0 0 1 0 225.767619z m508.001524-235.178666a37.627937 37.627937 0 1 1 0 75.255873 37.627937 37.627937 0 0 1 0-75.255873z m-79.969524 159.922793a37.611683 37.611683 0 1 1-0.016254-75.239619 37.611683 37.611683 0 0 1 0.016254 75.239619z m79.969524 84.666921a37.627937 37.627937 0 1 1 0-75.255873 37.627937 37.627937 0 0 1 0 75.255873z m75.255873-84.666921a37.611683 37.611683 0 1 1-0.016254-75.239619 37.611683 37.611683 0 0 1 0.016254 75.239619z" p-id="15658"></path></svg>