<?xml version="1.0" standalone="no"?><!DOCTYPE svg PUBLIC "-//W3C//DTD SVG 1.1//EN" "http://www.w3.org/Graphics/SVG/1.1/DTD/svg11.dtd"><svg t="1638951377640" class="icon" viewBox="0 0 1024 1024" version="1.1" xmlns="http://www.w3.org/2000/svg" p-id="10486" xmlns:xlink="http://www.w3.org/1999/xlink" width="200" height="200"><defs><style type="text/css"></style></defs><path d="M474.555775 0.052621c5.944747-0.113775 74.437333-1.052419 158.147333 24.347863 25.542501 7.736704 49.748145 17.15159 72.5316 28.10244 73.043588-70.000106 191.255876-69.800999 264.015027 0.654206a177.489093 177.489093 0 0 1 0 256.392097c-10.666412 10.325087-22.470574 19.284873-35.241825 26.794027 23.267 88.460109 21.958587 181.897877-5.574978 265.181221-34.530731 104.445505-106.948556 187.387524-209.971873 240.861801l54.640472 155.160738a19.853748 19.853748 0 0 1-12.856581 25.371838 21.162161 21.162161 0 0 1-6.684285 1.080864 20.62173 20.62173 0 0 1-19.540867-13.539233l-55.465341-157.578457c-58.907037-0.568875-111.755553-26.36737-153.596331-75.290646-33.506755-39.167064-48.12685-79.32966-48.724169-81.007843a19.455535 19.455535 0 0 1 2.901264-18.772885 20.564842 20.564842 0 0 1 17.635134-7.765148h1.023975c4.437227-0.142219 22.726568-1.535963 36.948451-15.018307 14.079664-13.311682 21.07683-35.071162 20.84928-64.624234-0.312881-40.247927-40.247927-59.618131-110.788465-90.365842-74.152895-32.340561-166.452913-72.560044-219.443646-168.586195-20.138186-36.464907-31.003704-72.929813-32.653442-107.773425-29.979728 40.219484-64.538903 102.881098-64.538903 178.057969 0 103.905073-50.999671 161.162372-84.193544 187.444411 7.992698 4.124346 17.066259 8.334023 25.883826 12.429925 33.563643 15.615627 53.844047 25.030513 53.844047 44.315386v42.580316c0 10.040649-1.991064 19.882192-5.88786 29.183303l-5.119877 12.230819a11.235287 11.235287 0 0 0 1.678182 11.434393l3.640802 4.465671a19.626198 19.626198 0 0 1 4.408783 12.373038v11.292175c0 1.450632 0.9102 2.787489 2.275502 3.356364l0.9102 0.369769c7.594485 3.128814 12.515257 10.381974 12.515257 18.374672v34.530731c0 28.244659 23.778988 51.255664 52.96229 51.255664H252.011757c11.40595 0 20.650173 8.959786 20.650174 19.995967a20.337292 20.337292 0 0 1-20.650174 19.995967H191.085213c-51.966759 0-94.234193-40.959022-94.234193-91.247598v-23.49455a43.006973 43.006973 0 0 1-15.729402-33.136986v-4.38034a50.260133 50.260133 0 0 1-6.684285-50.260133l5.119878-12.202375c1.877288-4.522559 2.844376-9.272667 2.844376-14.136551v-35.640038c-6.769616-4.181233-20.650173-10.637968-30.434828-15.18897-11.036181-5.119878-22.470574-10.438862-32.596555-15.956952a36.607125 36.607125 0 0 1-19.256429-29.353966c-0.938644-12.344594 4.494115-24.205644 14.591651-31.771685 26.936245-20.251961 72.161832-67.781492 72.161832-158.858427 0-136.729178 96.339032-233.153541 117.7003-252.865071 3.982127-10.296643 8.959786-20.308848 14.96142-29.979728C264.811452 45.647976 362.544228 0.137952 474.555775 0.052621z m70.455205 990.923883a16.639602 16.639602 0 0 1 16.497384 16.497384 16.639602 16.639602 0 0 1-4.83544 11.661944 16.611159 16.611159 0 0 1-28.187771-11.661944 16.639602 16.639602 0 0 1 16.525827-16.497384zM243.677734 692.174754c19.34176-42.182103 62.576283-67.980598 107.602763-64.197578 61.239426 5.148321 108.71207 56.88753 110.475583 120.317126l2.104839 75.745746 62.007407 110.930683a20.792392 20.792392 0 0 1-7.25316 27.903334 19.455535 19.455535 0 0 1-27.021576-7.480711l-54.612029-97.704332-23.892763 14.221882-23.835875 14.250327 59.874126 107.176106a20.820836 20.820836 0 0 1-7.224717 27.931777 19.227985 19.227985 0 0 1-9.869986 2.730602 19.654642 19.654642 0 0 1-17.15159-10.239756l-67.411723-120.601563-61.72297-41.584785c-50.174801-33.762749-68.663249-101.373578-43.035417-157.29402z m98.81364-23.665213c-26.651808 0-51.483215 16.01384-63.031383 41.158128l-0.967088 2.133282c-17.208478 37.488882-4.806996 82.885131 28.841977 105.526368l55.52223 37.375108 61.239425-36.521795-1.905732-68.720136c-1.166194-42.551872-33.023211-77.253266-74.124451-80.723405a66.131754 66.131754 0 0 0-5.574978-0.22755z m157.009582-65.904203c3.612358-6.997166 12.714363-9.983761 20.308849-6.655841 7.594485 3.356364 10.808631 11.747275 7.196272 18.772885l-2.503051 4.892327a15.416521 15.416521 0 0 1-13.795226 8.021142 16.269834 16.269834 0 0 1-6.542066-1.393745c-7.594485-3.32792-10.808631-11.718831-7.196273-18.744441zM138.122923 469.118749a19.256429 19.256429 0 0 1 29.097971 0c17.066259 18.772885 44.827374 18.772885 61.865189 0a19.256429 19.256429 0 0 1 29.126415 0 24.347863 24.347863 0 0 1 0 32.056123c-16.554271 18.232453-38.313751 27.362902-60.044788 27.362902-21.75948 0-43.490517-9.130449-60.044787-27.362902a24.347863 24.347863 0 0 1 0-32.056123z m801.886621-387.688516c-53.815603-52.108977-139.516667-54.896466-196.773966-8.390911 61.438532 37.033782 110.361808 86.924146 144.29522 147.680027 13.539232 24.262532 24.916738 49.63437 34.132518 75.660415 6.485178-4.551002 12.629032-9.585549 18.346228-15.132083 56.88753-55.067129 56.88753-144.721876 0-199.817448z" p-id="10487"></path></svg>