<?xml version="1.0" standalone="no"?><!DOCTYPE svg PUBLIC "-//W3C//DTD SVG 1.1//EN" "http://www.w3.org/Graphics/SVG/1.1/DTD/svg11.dtd"><svg t="1638951226522" class="icon" viewBox="0 0 1024 1024" version="1.1" xmlns="http://www.w3.org/2000/svg" p-id="7022" xmlns:xlink="http://www.w3.org/1999/xlink" width="200" height="200"><defs><style type="text/css"></style></defs><path d="M256 256v-40.512c0-52.672 5.504-71.808 15.808-91.072 10.24-19.2 25.408-34.368 44.608-44.608 19.264-10.304 38.4-15.808 91.072-15.808h209.024c52.672 0 71.808 5.504 91.072 15.808 19.2 10.24 34.368 25.408 44.608 44.608 10.304 19.264 15.808 38.4 15.808 91.072V256h9.856c85.568 0 116.608 8.96 147.904 25.6 31.36 16.768 55.872 41.344 72.576 72.64 16.768 31.296 25.664 62.336 25.664 147.84v275.84c0 85.504-8.96 116.544-25.6 147.84a174.464 174.464 0 0 1-72.64 72.576c-31.296 16.768-62.336 25.664-147.84 25.664h-531.84c-85.504 0-116.544-8.96-147.84-25.6A174.464 174.464 0 0 1 25.6 925.696C8.896 894.464 0 863.424 0 777.92v-275.84c0-85.504 8.96-116.544 25.6-147.84A174.464 174.464 0 0 1 98.304 281.6C129.536 264.896 160.576 256 246.08 256H256z m192 320H361.024c-14.272 0-19.456 1.472-24.64 4.288a29.056 29.056 0 0 0-12.16 12.096C321.536 597.568 320 602.752 320 616.96v45.952c0 14.272 1.472 19.456 4.288 24.64a29.056 29.056 0 0 0 12.096 12.16c5.184 2.752 10.368 4.224 24.64 4.224H448v86.976c0 14.272 1.472 19.456 4.288 24.64a29.056 29.056 0 0 0 12.096 12.16c5.184 2.752 10.368 4.224 24.64 4.224h45.952c14.272 0 19.456-1.472 24.64-4.288a29.056 29.056 0 0 0 12.16-12.096c2.752-5.184 4.224-10.368 4.224-24.64V704h86.976c14.272 0 19.456-1.472 24.64-4.288a29.056 29.056 0 0 0 12.16-12.096c2.752-5.184 4.224-10.368 4.224-24.64v-45.952c0-14.272-1.472-19.456-4.288-24.64a29.056 29.056 0 0 0-12.096-12.16C682.432 577.536 677.248 576 663.04 576H576V489.024c0-14.272-1.472-19.456-4.288-24.64a29.056 29.056 0 0 0-12.096-12.16C554.432 449.536 549.248 448 535.04 448h-45.952c-14.272 0-19.456 1.472-24.64 4.288a29.056 29.056 0 0 0-12.16 12.096C449.536 469.568 448 474.752 448 488.96V576z m256-360.512c0-38.4-2.176-49.536-8.192-60.864a43.392 43.392 0 0 0-18.432-18.432c-11.328-6.016-22.464-8.192-60.8-8.192H407.424c-38.4 0-49.536 2.176-60.864 8.192a43.392 43.392 0 0 0-18.432 18.432c-6.016 11.328-8.192 22.464-8.192 60.8V256h384v-40.512z" p-id="7023"></path></svg>