<?xml version="1.0" standalone="no"?><!DOCTYPE svg PUBLIC "-//W3C//DTD SVG 1.1//EN" "http://www.w3.org/Graphics/SVG/1.1/DTD/svg11.dtd"><svg t="1638975004527" class="icon" viewBox="0 0 1024 1024" version="1.1" xmlns="http://www.w3.org/2000/svg" p-id="27091" xmlns:xlink="http://www.w3.org/1999/xlink" width="200" height="200"><defs><style type="text/css"></style></defs><path d="M290.1 1008.5c-28.5 0-56.9-8.9-81.1-26.5-42.9-31.2-63.9-83-55-135.2l25.2-146.9c3.5-20.2-3.2-40.8-17.9-55.1l-106.7-104c-38-37-51.4-91.3-35-141.7C36 348.7 78.7 312.6 131.2 305l147.5-21.4c20.3-2.9 37.8-15.7 46.9-34l66-133.7c23.5-47.5 71-77.1 124-77.1s100.5 29.5 124 77.1l66 133.7c9.1 18.4 26.6 31.1 46.9 34L899.7 305c52.5 7.6 95.2 43.7 111.6 94.1s3 104.7-35 141.7l-106.7 104a62.064 62.064 0 0 0-17.9 55.1l25.2 146.9c9 52.2-12.1 104-55 135.2-42.9 31.2-98.7 35.2-145.6 10.5l-131.9-69.4c-18.1-9.5-39.8-9.5-57.9 0l-131.9 69.4c-20.5 10.7-42.6 16-64.5 16z m289.6-152.7l131.9 69.4c21.4 11.3 45.9 9.5 65.5-4.7s28.8-37 24.8-60.9l-25.2-146.9c-7.7-44.8 7.2-90.6 39.8-122.3l106.7-104c17.3-16.9 23.2-40.8 15.7-63.8s-26.3-38.9-50.2-42.4l-147.5-21.4c-45-6.5-83.9-34.8-104.1-75.6l-66-133.7c-10.7-21.7-31.6-34.7-55.8-34.7s-45.1 13-55.8 34.7l-66 133.7c-20.1 40.8-59 69.1-104.1 75.6l-147.5 21.4c-24 3.5-42.7 19.3-50.2 42.4s-1.6 46.9 15.7 63.8l106.7 104c32.6 31.8 47.4 77.5 39.8 122.3l-25.2 146.9c-4.1 23.9 5.2 46.6 24.8 60.9 19.6 14.2 44.1 16 65.5 4.7l131.9-69.4c40.5-21.1 88.6-21.1 128.8 0z"  p-id="27092"></path><path d="M743.3 490.1c-1.8 0-3.5-0.1-5.3-0.4l-74.5-10.4h-0.2c-45-6.5-83.9-34.8-104.1-75.6-0.2-0.4-0.4-0.7-0.5-1.1l-33-72.7c-8.7-19.1-0.2-41.6 18.9-50.3 19.1-8.7 41.6-0.2 50.3 18.9l32.7 72c9.1 18.1 26.5 30.6 46.5 33.5l74.4 10.4c20.8 2.9 35.3 22.1 32.4 42.9-2.7 19.1-19 32.8-37.6 32.8z" p-id="27093"></path></svg>