<?xml version="1.0" standalone="no"?><!DOCTYPE svg PUBLIC "-//W3C//DTD SVG 1.1//EN" "http://www.w3.org/Graphics/SVG/1.1/DTD/svg11.dtd"><svg t="1638950782347" class="icon" viewBox="0 0 1024 1024" version="1.1" xmlns="http://www.w3.org/2000/svg" p-id="7358" xmlns:xlink="http://www.w3.org/1999/xlink" width="200" height="200"><defs><style type="text/css"></style></defs><path d="M327.328 269.728v495.36c0 92.032 134.08 151.04 294.4 151.04 160.288 0 294.4-59.008 294.4-151.04V269.728h-76.8v495.36c0 11.52-16.768 28.96-52.064 44.48-42.528 18.72-101.76 29.76-165.536 29.76-63.776 0-123.04-11.04-165.568-29.76-35.296-15.52-52.032-32.96-52.032-44.48V269.728h-76.8z" p-id="7359"></path><path d="M621.728 404.128c160.416 0 294.4-57.44 294.4-148.128 0-90.688-133.984-148.128-294.4-148.128-160.448 0-294.4 57.44-294.4 148.128 0 90.688 133.952 148.128 294.4 148.128z m0-76.8c-63.904 0-123.296-10.784-165.92-29.056-35.136-15.04-51.68-31.84-51.68-42.272 0-10.432 16.544-27.2 51.68-42.272 42.624-18.272 102.016-29.056 165.92-29.056 63.872 0 123.264 10.784 165.888 29.056 35.136 15.04 51.712 31.84 51.712 42.272 0 10.432-16.576 27.2-51.712 42.272-42.624 18.272-102.016 29.056-165.888 29.056z" p-id="7360"></path><path d="M176.288 512.832l-87.52 281.664a38.4 38.4 0 0 0 36.672 49.792h240.288a38.4 38.4 0 0 0 38.4-38.4V256a38.4 38.4 0 0 0-38.4-38.4h-240.32a38.4 38.4 0 0 0-36.16 51.296l87.04 243.936z m151.04 254.656h-149.76l75.84-244.096a38.4 38.4 0 0 0-0.48-24.32L179.904 294.4h147.424v473.088z" p-id="7361"></path></svg>