<?xml version="1.0" standalone="no"?><!DOCTYPE svg PUBLIC "-//W3C//DTD SVG 1.1//EN" "http://www.w3.org/Graphics/SVG/1.1/DTD/svg11.dtd"><svg t="1638951023576" class="icon" viewBox="0 0 1024 1024" version="1.1" xmlns="http://www.w3.org/2000/svg" p-id="2382" xmlns:xlink="http://www.w3.org/1999/xlink" width="200" height="200"><defs><style type="text/css"></style></defs><path d="M303.628 534.838a348.584 348.584 0 0 0 7.66 19.443C184.259 585.274 90 699.658 90 836c0 24.3-19.7 44-44 44S2 860.3 2 836c0-151.573 89.326-282.296 218.26-342.553 24.903 18.27 53.03 32.405 83.368 41.39zM283.27 429.93C231.448 397.38 197 339.713 197 274c0-101.62 82.38-184 184-184 29.525 0 57.425 6.954 82.153 19.313C355.678 169.313 283 284.17 283 416c0 4.665 0.091 9.309 0.271 13.93z m196.99 202.517C525.29 665.487 580.867 685 641 685c59.96 0 115.387-19.4 160.35-52.268C929.955 693.117 1019 823.666 1019 975c0 24.3-19.7 44-44 44s-44-19.7-44-44c0-160.148-130.047-290-290.5-290S350 814.852 350 975c0 24.3-19.7 44-44 44s-44-19.7-44-44c0-151.573 89.326-282.296 218.26-342.553zM641 597c-101.62 0-184-82.38-184-184s82.38-184 184-184 184 82.38 184 184-82.38 184-184 184z" p-id="2383"></path></svg>